<svg width="65" height="21" viewBox="0 0 65 21" fill="none" xmlns="http://www.w3.org/2000/svg">
<path d="M4.60773 6.06C4.60773 4.28667 4.92107 2.89333 5.54773 1.88C6.1744 0.866666 7.10107 0.359999 8.32773 0.359999C9.1944 0.359999 9.90773 0.566665 10.4677 0.979999C11.0277 1.39333 11.3077 1.92667 11.3077 2.58C11.3077 3.15333 11.1211 3.62667 10.7477 4C10.3877 4.36 9.92107 4.54 9.34773 4.54C9.0944 4.54 8.96773 4.46667 8.96773 4.32C8.96773 4.28 9.0144 4.18667 9.10773 4.04C9.20107 3.89333 9.28107 3.71333 9.34773 3.5C9.4144 3.28667 9.44773 3.01333 9.44773 2.68C9.44773 2.25333 9.32773 1.91333 9.08773 1.66C8.84773 1.39333 8.52107 1.26 8.10773 1.26C7.52107 1.26 7.08773 1.55333 6.80773 2.14C6.54107 2.71333 6.40773 3.51333 6.40773 4.54V6.06H9.20773C9.20773 6.34 9.16773 6.59333 9.08773 6.82C9.00773 7.04667 8.8944 7.21333 8.74773 7.32H6.40773V16.26C6.40773 17.6467 6.10107 18.74 5.48773 19.54C4.88773 20.3533 3.9944 20.76 2.80773 20.76C2.08773 20.76 1.4944 20.5733 1.02773 20.2C0.561068 19.84 0.327734 19.3467 0.327734 18.72C0.327734 18.2133 0.514401 17.7867 0.887734 17.44C1.26107 17.0933 1.72773 16.92 2.28773 16.92C2.54107 16.92 2.66773 16.9933 2.66773 17.14C2.66773 17.18 2.6144 17.2667 2.50773 17.4C2.40107 17.5467 2.30773 17.7067 2.22773 17.88C2.14773 18.0667 2.10773 18.3 2.10773 18.58C2.10773 18.9933 2.2144 19.3133 2.42773 19.54C2.62773 19.78 2.88773 19.9 3.20773 19.9C3.60773 19.9 3.94107 19.72 4.20773 19.36C4.4744 19.0133 4.60773 18.4933 4.60773 17.8V7.32H2.84773C2.84773 6.96 2.8744 6.72667 2.92773 6.62C2.98107 6.51333 3.1144 6.43333 3.32773 6.38L4.60773 6.06ZM10.0074 11.04C10.0074 9.97333 10.2008 9.04667 10.5874 8.26C10.9874 7.47333 11.5541 6.86667 12.2874 6.44C13.0341 6.01333 13.9008 5.8 14.8874 5.8C15.8741 5.8 16.7341 6.01333 17.4674 6.44C18.2008 6.86667 18.7674 7.47333 19.1674 8.26C19.5674 9.04667 19.7674 9.97333 19.7674 11.04C19.7674 12.0933 19.5674 13.02 19.1674 13.82C18.7674 14.6067 18.2008 15.2133 17.4674 15.64C16.7341 16.0667 15.8741 16.28 14.8874 16.28C13.9008 16.28 13.0341 16.0667 12.2874 15.64C11.5541 15.2133 10.9874 14.6067 10.5874 13.82C10.2008 13.02 10.0074 12.0933 10.0074 11.04ZM17.6674 11.1C17.6674 10.4733 17.5808 9.83333 17.4074 9.18C17.2341 8.52667 16.9408 7.97333 16.5274 7.52C16.1274 7.06667 15.6008 6.84 14.9474 6.84C14.3874 6.84 13.8874 7.02 13.4474 7.38C13.0208 7.72667 12.6874 8.22 12.4474 8.86C12.2074 9.5 12.0874 10.2333 12.0874 11.06C12.0874 12.3267 12.3341 13.3333 12.8274 14.08C13.3208 14.8267 13.9874 15.2 14.8274 15.2C15.3741 15.2 15.8608 15.0333 16.2874 14.7C16.7274 14.3533 17.0674 13.8733 17.3074 13.26C17.5474 12.6333 17.6674 11.9133 17.6674 11.1ZM24.8699 8.78C25.0966 7.88667 25.4433 7.16667 25.9099 6.62C26.3899 6.07333 26.9099 5.8 27.4699 5.8C28.0299 5.8 28.4899 5.98667 28.8499 6.36C29.2233 6.72 29.4099 7.21333 29.4099 7.84C29.4099 8.34667 29.2233 8.77333 28.8499 9.12C28.4766 9.46667 28.0099 9.64 27.4499 9.64C27.1966 9.64 27.0699 9.56667 27.0699 9.42C27.0699 9.38 27.1233 9.28 27.2299 9.12C27.3499 8.96 27.4433 8.79333 27.5099 8.62C27.5899 8.44667 27.6299 8.25333 27.6299 8.04C27.6299 7.8 27.5633 7.61333 27.4299 7.48C27.3099 7.33333 27.1566 7.26 26.9699 7.26C26.6499 7.26 26.3166 7.45333 25.9699 7.84C25.6366 8.21333 25.3499 8.82667 25.1099 9.68C24.8699 10.52 24.7499 11.5867 24.7499 12.88C24.7499 13.48 24.7966 13.9667 24.8899 14.34C24.9833 14.7 25.1499 15.0467 25.3899 15.38L25.6299 15.7L25.3899 16H21.8899L21.6699 15.38L22.0899 15.28C22.4233 15.2 22.6433 15.06 22.7499 14.86C22.8699 14.6467 22.9299 14.2867 22.9299 13.78V8.16C22.9299 8 22.8966 7.88667 22.8299 7.82C22.7766 7.75333 22.6766 7.72 22.5299 7.72H21.6499L21.4699 7.2C21.8566 6.85333 22.2966 6.56667 22.7899 6.34C23.2966 6.11333 23.7366 6 24.1099 6C24.2966 6 24.4499 6.06 24.5699 6.18C24.6899 6.3 24.7499 6.45333 24.7499 6.64V8.78H24.8699ZM39.2246 10.1895H33.5996V16H30.6699V1.78125H39.9277V4.1543H33.5996V7.82617H39.2246V10.1895ZM44.5566 10.9902V16H41.627V1.78125H47.1738C48.2415 1.78125 49.179 1.97656 49.9863 2.36719C50.8001 2.75781 51.4251 3.31445 51.8613 4.03711C52.2975 4.75326 52.5156 5.57031 52.5156 6.48828C52.5156 7.88151 52.0371 8.98177 51.0801 9.78906C50.1296 10.5898 48.8112 10.9902 47.125 10.9902H44.5566ZM44.5566 8.61719H47.1738C47.9486 8.61719 48.5378 8.4349 48.9414 8.07031C49.3516 7.70573 49.5566 7.1849 49.5566 6.50781C49.5566 5.8112 49.3516 5.24805 48.9414 4.81836C48.5312 4.38867 47.9648 4.16732 47.2422 4.1543H44.5566V8.61719ZM61.9102 12.2695C61.9102 11.7161 61.7148 11.293 61.3242 11C60.9336 10.7005 60.2305 10.388 59.2148 10.0625C58.1992 9.73047 57.3952 9.40495 56.8027 9.08594C55.1882 8.21354 54.3809 7.03841 54.3809 5.56055C54.3809 4.79232 54.5957 4.10872 55.0254 3.50977C55.4616 2.9043 56.0833 2.43229 56.8906 2.09375C57.7044 1.75521 58.6159 1.58594 59.625 1.58594C60.6406 1.58594 61.5456 1.77148 62.3398 2.14258C63.1341 2.50716 63.7493 3.02474 64.1855 3.69531C64.6283 4.36589 64.8496 5.1276 64.8496 5.98047H61.9199C61.9199 5.32943 61.7148 4.82487 61.3047 4.4668C60.8945 4.10221 60.3184 3.91992 59.5762 3.91992C58.86 3.91992 58.3034 4.07292 57.9062 4.37891C57.5091 4.67839 57.3105 5.07552 57.3105 5.57031C57.3105 6.03255 57.5417 6.41992 58.0039 6.73242C58.4727 7.04492 59.1595 7.33789 60.0645 7.61133C61.7311 8.11263 62.9453 8.73438 63.707 9.47656C64.4688 10.2188 64.8496 11.1432 64.8496 12.25C64.8496 13.4805 64.3841 14.4473 63.4531 15.1504C62.5221 15.847 61.2689 16.1953 59.6934 16.1953C58.5996 16.1953 57.6035 15.9967 56.7051 15.5996C55.8066 15.196 55.1198 14.6458 54.6445 13.9492C54.1758 13.2526 53.9414 12.4453 53.9414 11.5273H56.8809C56.8809 13.0964 57.8184 13.8809 59.6934 13.8809C60.39 13.8809 60.9336 13.7409 61.3242 13.4609C61.7148 13.1745 61.9102 12.7773 61.9102 12.2695Z" fill="white"/>
</svg>
