<svg width="117" height="38" viewBox="0 0 117 38" fill="none" xmlns="http://www.w3.org/2000/svg">
<path d="M8.09392 11.108C8.09392 7.916 8.65792 5.408 9.78592 3.584C10.9139 1.76 12.5819 0.847998 14.7899 0.847998C16.3499 0.847998 17.6339 1.22 18.6419 1.964C19.6499 2.708 20.1539 3.668 20.1539 4.844C20.1539 5.876 19.8179 6.728 19.1459 7.4C18.4979 8.048 17.6579 8.372 16.6259 8.372C16.1699 8.372 15.9419 8.24 15.9419 7.976C15.9419 7.904 16.0259 7.736 16.1939 7.472C16.3619 7.208 16.5059 6.884 16.6259 6.5C16.7459 6.116 16.8059 5.624 16.8059 5.024C16.8059 4.256 16.5899 3.644 16.1579 3.188C15.7259 2.708 15.1379 2.468 14.3939 2.468C13.3379 2.468 12.5579 2.996 12.0539 4.052C11.5739 5.084 11.3339 6.524 11.3339 8.372V11.108H16.3739C16.3739 11.612 16.3019 12.068 16.1579 12.476C16.0139 12.884 15.8099 13.184 15.5459 13.376H11.3339V29.468C11.3339 31.964 10.7819 33.932 9.67792 35.372C8.59792 36.836 6.98992 37.568 4.85392 37.568C3.55792 37.568 2.48992 37.232 1.64992 36.56C0.809922 35.912 0.389922 35.024 0.389922 33.896C0.389922 32.984 0.725922 32.216 1.39792 31.592C2.06992 30.968 2.90992 30.656 3.91792 30.656C4.37392 30.656 4.60192 30.788 4.60192 31.052C4.60192 31.124 4.50592 31.28 4.31392 31.52C4.12192 31.784 3.95392 32.072 3.80992 32.384C3.66592 32.72 3.59392 33.14 3.59392 33.644C3.59392 34.388 3.78592 34.964 4.16992 35.372C4.52992 35.804 4.99792 36.02 5.57392 36.02C6.29392 36.02 6.89392 35.696 7.37392 35.048C7.85392 34.424 8.09392 33.488 8.09392 32.24V13.376H4.92592C4.92592 12.728 4.97392 12.308 5.06992 12.116C5.16592 11.924 5.40592 11.78 5.78992 11.684L8.09392 11.108ZM17.8134 20.072C17.8134 18.152 18.1614 16.484 18.8574 15.068C19.5774 13.652 20.5974 12.56 21.9174 11.792C23.2614 11.024 24.8214 10.64 26.5974 10.64C28.3734 10.64 29.9214 11.024 31.2414 11.792C32.5614 12.56 33.5814 13.652 34.3014 15.068C35.0214 16.484 35.3814 18.152 35.3814 20.072C35.3814 21.968 35.0214 23.636 34.3014 25.076C33.5814 26.492 32.5614 27.584 31.2414 28.352C29.9214 29.12 28.3734 29.504 26.5974 29.504C24.8214 29.504 23.2614 29.12 21.9174 28.352C20.5974 27.584 19.5774 26.492 18.8574 25.076C18.1614 23.636 17.8134 21.968 17.8134 20.072ZM31.6014 20.18C31.6014 19.052 31.4454 17.9 31.1334 16.724C30.8214 15.548 30.2934 14.552 29.5494 13.736C28.8294 12.92 27.8814 12.512 26.7054 12.512C25.6974 12.512 24.7974 12.836 24.0054 13.484C23.2374 14.108 22.6374 14.996 22.2054 16.148C21.7734 17.3 21.5574 18.62 21.5574 20.108C21.5574 22.388 22.0014 24.2 22.8894 25.544C23.7774 26.888 24.9774 27.56 26.4894 27.56C27.4734 27.56 28.3494 27.26 29.1174 26.66C29.9094 26.036 30.5214 25.172 30.9534 24.068C31.3854 22.94 31.6014 21.644 31.6014 20.18ZM44.5659 16.004C44.9739 14.396 45.5979 13.1 46.4379 12.116C47.3019 11.132 48.2379 10.64 49.2459 10.64C50.2539 10.64 51.0819 10.976 51.7299 11.648C52.4019 12.296 52.7379 13.184 52.7379 14.312C52.7379 15.224 52.4019 15.992 51.7299 16.616C51.0579 17.24 50.2179 17.552 49.2099 17.552C48.7539 17.552 48.5259 17.42 48.5259 17.156C48.5259 17.084 48.6219 16.904 48.8139 16.616C49.0299 16.328 49.1979 16.028 49.3179 15.716C49.4619 15.404 49.5339 15.056 49.5339 14.672C49.5339 14.24 49.4139 13.904 49.1739 13.664C48.9579 13.4 48.6819 13.268 48.3459 13.268C47.7699 13.268 47.1699 13.616 46.5459 14.312C45.9459 14.984 45.4299 16.088 44.9979 17.624C44.5659 19.136 44.3499 21.056 44.3499 23.384C44.3499 24.464 44.4339 25.34 44.6019 26.012C44.7699 26.66 45.0699 27.284 45.5019 27.884L45.9339 28.46L45.5019 29H39.2019L38.8059 27.884L39.5619 27.704C40.1619 27.56 40.5579 27.308 40.7499 26.948C40.9659 26.564 41.0739 25.916 41.0739 25.004V14.888C41.0739 14.6 41.0139 14.396 40.8939 14.276C40.7979 14.156 40.6179 14.096 40.3539 14.096H38.7699L38.4459 13.16C39.1419 12.536 39.9339 12.02 40.8219 11.612C41.7339 11.204 42.5259 11 43.1979 11C43.5339 11 43.8099 11.108 44.0259 11.324C44.2419 11.54 44.3499 11.816 44.3499 12.152V16.004H44.5659Z" fill="white"/>
<path d="M70.4043 18.541H60.2793V29H55.0059V3.40625H71.6699V7.67773H60.2793V14.2871H70.4043V18.541ZM80.002 19.9824V29H74.7285V3.40625H84.7129C86.6348 3.40625 88.3223 3.75781 89.7754 4.46094C91.2402 5.16406 92.3652 6.16602 93.1504 7.4668C93.9355 8.75586 94.3281 10.2266 94.3281 11.8789C94.3281 14.3867 93.4668 16.3672 91.7441 17.8203C90.0332 19.2617 87.6602 19.9824 84.625 19.9824H80.002ZM80.002 15.7109H84.7129C86.1074 15.7109 87.168 15.3828 87.8945 14.7266C88.6328 14.0703 89.002 13.1328 89.002 11.9141C89.002 10.6602 88.6328 9.64648 87.8945 8.87305C87.1562 8.09961 86.1367 7.70117 84.8359 7.67773H80.002V15.7109ZM111.238 22.2852C111.238 21.2891 110.887 20.5273 110.184 20C109.48 19.4609 108.215 18.8984 106.387 18.3125C104.559 17.7148 103.111 17.1289 102.045 16.5547C99.1387 14.9844 97.6855 12.8691 97.6855 10.209C97.6855 8.82617 98.0723 7.5957 98.8457 6.51758C99.6309 5.42773 100.75 4.57813 102.203 3.96875C103.668 3.35937 105.309 3.05469 107.125 3.05469C108.953 3.05469 110.582 3.38867 112.012 4.05664C113.441 4.71289 114.549 5.64453 115.334 6.85156C116.131 8.05859 116.529 9.42969 116.529 10.9648H111.256C111.256 9.79297 110.887 8.88477 110.148 8.24023C109.41 7.58398 108.373 7.25586 107.037 7.25586C105.748 7.25586 104.746 7.53125 104.031 8.08203C103.316 8.62109 102.959 9.33594 102.959 10.2266C102.959 11.0586 103.375 11.7559 104.207 12.3184C105.051 12.8809 106.287 13.4082 107.916 13.9004C110.916 14.8027 113.102 15.9219 114.473 17.2578C115.844 18.5938 116.529 20.2578 116.529 22.25C116.529 24.4648 115.691 26.2051 114.016 27.4707C112.34 28.7246 110.084 29.3516 107.248 29.3516C105.279 29.3516 103.486 28.9941 101.869 28.2793C100.252 27.5527 99.0156 26.5625 98.1602 25.3086C97.3164 24.0547 96.8945 22.6016 96.8945 20.9492H102.186C102.186 23.7734 103.873 25.1855 107.248 25.1855C108.502 25.1855 109.48 24.9336 110.184 24.4297C110.887 23.9141 111.238 23.1992 111.238 22.2852Z" fill="#41E889"/>
</svg>
